<?xml version="1.0" encoding="UTF-8"?>
<!DOCTYPE svg PUBLIC "-//W3C//DTD SVG 1.1//EN" "http://www.w3.org/Graphics/SVG/1.1/DTD/svg11.dtd">
<!-- Creator: CorelDRAW 2021 (64-Bit) -->
<svg xmlns="http://www.w3.org/2000/svg" xml:space="preserve" width="210mm" height="297mm" version="1.1" style="shape-rendering:geometricPrecision; text-rendering:geometricPrecision; image-rendering:optimizeQuality; fill-rule:evenodd; clip-rule:evenodd"
viewBox="0 0 21000 29700"
 xmlns:xlink="http://www.w3.org/1999/xlink"
 xmlns:xodm="http://www.corel.com/coreldraw/odm/2003">
 <defs>
  <style type="text/css">
   <![CDATA[
    .fil0 {fill:#F6AD71;fill-rule:nonzero}
    .fil1 {fill:black;fill-rule:nonzero}
   ]]>
  </style>
 </defs>
 <g id="Layer_x0020_1">
  <metadata id="CorelCorpID_0Corel-Layer"/>
  <g id="Trapezoid">
   <polygon class="fil0" points="12607.05,1924.24 8315.98,1924.24 8332.49,-163.56 13624.15,-163.56 "/>
  </g>
  <g id="Bookstore">
   <g>
    <g>
     <path class="fil1" d="M8865.33 1497.05l0 -21.17 7.7 0c19.24,-1.92 40.41,-3.85 50.03,-23.09 5.77,-11.55 7.7,-32.71 7.7,-50.03l-0.01 -288.64c0,-36.56 -3.85,-63.5 -51.95,-67.35l-11.55 -1.92 0 -21.17 236.68 0c36.56,0 90.44,1.92 125.08,13.47 44.26,15.39 76.97,50.03 76.97,98.14 0,59.65 -46.18,88.52 -100.06,98.14l0 1.92c63.5,9.62 125.08,48.11 125.08,119.3 0,51.95 -26.94,94.29 -73.12,117.38 -42.33,21.17 -100.06,23.09 -146.24,23.09l-246.31 0 0 1.93zm209.74 -269.4c63.5,0 159.71,0 159.71,-88.52 0,-78.89 -80.82,-88.52 -142.39,-88.52 -19.24,0 -63.5,0 -80.82,15.39 -11.55,11.55 -13.47,32.71 -13.47,50.03l0 111.62 76.97 0zm-76.97 159.72c0,19.24 0,50.03 11.55,63.5 15.39,15.39 59.65,17.32 80.82,17.32 34.64,0 80.82,-3.85 111.61,-21.17 32.71,-19.24 50.03,-53.88 50.03,-92.36 0,-42.33 -19.24,-80.82 -63.5,-92.36 -28.86,-7.7 -69.27,-7.7 -101.98,-7.7l-88.53 -0.01 0 132.78z"/>
     <path class="fil1" d="M9669.66 1193.02c34.64,32.71 50.03,84.67 50.03,130.85 0,103.91 -65.42,173.18 -169.33,173.18 -101.98,0 -169.33,-67.35 -169.33,-169.33 0,-103.91 59.65,-178.95 167.41,-178.95 44.25,-0.01 90.43,13.46 121.22,44.25zm-117.38 -15.39c-78.89,0 -98.14,84.67 -98.14,148.17 0,67.35 19.24,144.32 101.98,144.32 75.05,0 92.36,-78.89 92.36,-138.55 0,-32.71 -1.92,-71.2 -17.32,-101.98 -15.39,-28.86 -44.26,-51.95 -76.97,-51.95l-1.91 -0.01z"/>
     <path class="fil1" d="M10058.36 1193.02c34.64,32.71 50.03,84.67 50.03,130.85 0,103.91 -65.42,173.18 -169.33,173.18 -101.98,0 -169.33,-67.35 -169.33,-169.33 0,-103.91 59.65,-178.95 167.41,-178.95 42.32,-0.01 90.43,13.46 121.22,44.25zm-117.38 -15.39c-78.89,0 -98.14,84.67 -98.14,148.17 0,67.35 19.24,144.32 101.98,144.32 75.05,0 92.36,-78.89 92.36,-138.55 0,-32.71 -1.92,-71.2 -17.32,-101.98 -15.39,-28.86 -44.26,-51.95 -76.97,-51.95l-1.91 -0.01z"/>
     <path class="fil1" d="M10273.87 1323.87l98.14 -86.59c7.7,-7.7 25.02,-19.24 25.02,-32.71 0,-19.24 -23.09,-21.17 -38.48,-23.09l0 -21.17 184.72 0 0 21.17c-61.58,5.77 -103.91,32.71 -148.17,73.12l-17.32 15.39 96.21 140.47c23.09,32.71 50.03,59.65 92.36,65.42l0.01 21.17 -188.58 0 0 -21.17 7.7 0c13.47,0 30.79,0 30.79,-19.24 0,-15.39 -15.39,-34.64 -23.09,-46.18l-65.42 -94.29 -55.8 50.03 0 44.26c0,40.41 3.85,65.42 48.11,67.35l11.53 0 0 19.24 -188.58 0 0 -21.17 7.7 0c46.18,-1.92 53.88,-23.09 53.88,-67.35l0 -296.33c0,-36.56 -3.85,-63.5 -51.95,-67.35l-9.62 0 0 -21.17c34.64,-3.85 67.35,-9.62 100.06,-23.09l26.93 0 0 323.28 3.85 0z"/>
     <path class="fil1" d="M10874.24 1262.3l-23.09 0c-17.32,-46.18 -71.2,-84.67 -121.23,-84.67 -30.79,0 -71.2,13.47 -71.2,50.03 0,34.64 40.41,40.41 65.42,46.18l78.89 19.24c51.95,11.55 96.21,30.79 96.21,92.36 0,76.97 -76.97,111.61 -144.32,111.61 -40.41,0 -78.89,-9.62 -111.61,-34.64l-7.7 28.86 -23.07 0.02 -25.02 -123.15 25.02 0c19.24,61.58 76.97,100.06 140.47,100.06 34.64,0 86.59,-17.32 86.59,-61.58 0,-34.64 -30.79,-42.33 -57.73,-48.11l-71.2 -19.24c-51.95,-13.47 -111.61,-26.94 -111.61,-92.36 0,-63.5 71.2,-98.14 127,-98.14 34.64,0 71.2,9.62 98.14,30.79l7.7 -25.02 19.25 0.01 23.09 107.75z"/>
     <path class="fil1" d="M11116.27 1179.55l-98.13 0 0 194.35c0,38.48 0,94.29 51.95,94.29 25.02,0 44.26,-13.47 59.65,-30.79l17.32 15.39c-23.09,30.79 -59.65,44.26 -98.14,44.26 -23.09,0 -50.03,-5.77 -69.27,-17.32 -26.94,-17.32 -30.79,-44.26 -30.79,-75.05l0 -225.13 -57.72 0 0 -23.09c78.89,-1.92 94.29,-59.65 94.29,-127l28.86 0 0 127 98.13 0 0 23.09 3.85 0z"/>
     <path class="fil1" d="M11446.5 1193.02c34.64,32.71 50.03,84.67 50.03,130.85 0,103.91 -65.42,173.18 -169.33,173.18 -101.98,0 -169.33,-67.35 -169.33,-169.33 0,-103.91 59.65,-178.95 167.41,-178.95 42.32,-0.01 90.43,13.46 121.22,44.25zm-117.38 -15.39c-78.89,0 -98.14,84.67 -98.14,148.17 0,67.35 19.24,144.32 101.98,144.32 75.05,0 92.36,-78.89 92.36,-138.55 0,-32.71 -1.92,-71.2 -17.32,-101.98 -15.39,-28.86 -44.26,-51.95 -76.97,-51.95l-1.91 -0.01z"/>
     <path class="fil1" d="M11651.68 1408.53c1.92,40.41 7.7,63.5 51.95,67.35l11.55 0 0 21.17 -190.5 -0.01 0 -21.17 7.7 0c46.18,-1.92 53.88,-25.02 53.88,-67.35l0 -144.32c0,-38.48 -7.7,-63.5 -50.03,-67.35l-13.47 0.01 0 -21.17 105.83 -15.39 23.09 0 0 51.95c30.79,-30.79 69.27,-59.65 115.45,-59.65 23.09,0 51.95,9.62 51.95,36.56 0,23.09 -17.32,36.56 -38.48,36.56 -32.71,0 -40.41,-23.09 -61.58,-23.09 -23.09,0 -51.95,21.17 -67.35,38.48l0.01 167.42z"/>
     <path class="fil1" d="M11892.21 1293.08l-1.92 34.64c0,32.71 11.55,69.27 28.86,96.21 19.24,28.86 53.88,42.33 88.52,42.33 46.18,0 78.89,-23.09 101.98,-63.5l23.09 11.55c-25.02,53.88 -82.74,82.74 -140.47,82.74 -46.18,0 -86.59,-11.55 -121.23,-44.26 -34.64,-34.64 -51.95,-82.74 -51.95,-128.92 0,-100.06 63.5,-173.18 165.48,-173.18l1.93 -0.01c80.82,0 148.17,53.88 148.17,138.55l0 1.92 -242.46 0 0 1.93zm167.41 -28.87c0,-51.95 -32.71,-84.67 -78.89,-84.67 -50.03,0 -80.82,40.41 -86.59,84.67l165.48 0z"/>
    </g>
   </g>
  </g>
  <g id="IT">
   <path class="fil1" d="M11103.79 272.82l-44.34 16.62c-49.89,-99.79 -144.12,-171.84 -255,-171.84 -44.34,0 -44.34,22.19 -44.34,49.9l-0.02 526.6c0,27.72 0,66.52 11.09,88.7 16.62,38.81 55.42,38.81 88.7,38.81l22.18 0 0 38.8 -360.33 0 0 -33.27 22.18 0c33.28,0 72.08,-5.53 88.7,-38.81 11.09,-22.18 11.09,-66.51 11.09,-94.23l0 -521.07c0,-38.8 0,-60.99 -49.89,-60.99 -116.41,0 -205.11,72.08 -260.54,171.84l-38.8 -16.62 66.51 -205.11 676.29 0.03 66.52 210.64z"/>
   <path class="fil1" d="M10136.14 180.9l-0.29 525.71c0,27.71 0,66.51 11.09,88.7 16.62,38.8 55.43,38.8 88.7,38.8l22.18 0 0 38.8 -360.32 0 0 -33.27 22.18 0c33.27,0 72.08,-5.53 88.7,-38.8 5.5,-10.98 8.26,-27.4 9.65,-44.54l-0.15 0 0.29 -525.71c0,-27.71 0,-66.52 -11.09,-88.7 -16.62,-38.8 -55.43,-38.8 -88.7,-38.8l-22.18 0 0 -38.81 360.33 0 0 33.27 -22.19 0c-33.27,0 -72.07,5.54 -88.69,38.81 -5.51,10.97 -8.27,27.39 -9.65,44.54l0.14 0z"/>
  </g>
 </g>
</svg>
