<?xml version="1.0" encoding="UTF-8"?>
<!DOCTYPE svg PUBLIC "-//W3C//DTD SVG 1.0//EN" "http://www.w3.org/TR/2001/REC-SVG-20010904/DTD/svg10.dtd">
<!-- Creator: CorelDRAW 2021 (64-Bit) -->
<svg xmlns="http://www.w3.org/2000/svg" xml:space="preserve" width="625px" height="246px" version="1.0" style="shape-rendering:geometricPrecision; text-rendering:geometricPrecision; image-rendering:optimizeQuality; fill-rule:evenodd; clip-rule:evenodd"
viewBox="0 0 625 245.81"
 xmlns:xlink="http://www.w3.org/1999/xlink"
 xmlns:xodm="http://www.corel.com/coreldraw/odm/2003">
 <defs>
  <style type="text/css">
   <![CDATA[
    .fil2 {fill:#FEFEFE;fill-rule:nonzero}
    .fil0 {fill:#F6AD71;fill-rule:nonzero}
    .fil1 {fill:#FEFEFE;fill-rule:nonzero}
   ]]>
  </style>
 </defs>
 <g id="Layer_x0020_1">
  <metadata id="CorelCorpID_0Corel-Layer"/>
  <g id="Trapezoid">
   <polygon class="fil0" points="505.25,245.81 0,245.81 1.97,0 625,0 "/>
  </g>
  <g id="Bookstore">
   <g>
    <g>
     <path class="fil1" d="M64.69 236.84l0 -2.47 0.9 0c2.28,-0.22 4.75,-0.44 5.91,-2.72 0.66,-1.37 0.87,-3.84 0.87,-5.87l0 -34c0,-4.32 -0.43,-7.5 -6.09,-7.94l-1.37 -0.22 0 -2.5 27.87 0c4.28,0 10.66,0.25 14.72,1.59 5.22,1.82 9.06,5.91 9.06,11.57 0,7 -5.43,10.4 -11.78,11.53l0 0.25c7.5,1.12 14.72,5.66 14.72,14.03 0,6.13 -3.16,11.09 -8.59,13.84 -5,2.47 -11.78,2.72 -17.22,2.72l-29 0 0 0.19 0 0zm24.68 -31.69c7.47,0 18.82,0 18.82,-10.44 0,-9.28 -9.53,-10.43 -16.78,-10.43 -2.25,0 -7.47,0 -9.5,1.84 -1.38,1.34 -1.6,3.84 -1.6,5.88l0 13.15 9.07 0 0 0 -0.01 0zm-9.06 18.78c0,2.28 0,5.91 1.35,7.5 1.84,1.78 7.03,2.03 9.53,2.03 4.09,0 9.5,-0.43 13.12,-2.5 3.88,-2.25 5.91,-6.34 5.91,-10.87 0,-4.97 -2.28,-9.53 -7.47,-10.85 -3.4,-0.93 -8.16,-0.93 -12,-0.93l-10.44 0 0 15.62 0 0 0 0z"/>
     <path class="fil1" d="M159.37 201.06c4.1,3.84 5.91,9.97 5.91,15.44 0,12.21 -7.69,20.34 -19.94,20.34 -12,0 -19.93,-7.91 -19.93,-19.91 0,-12.25 7.03,-21.06 19.69,-21.06 5.25,0 10.65,1.56 14.28,5.19l-0.01 0zm-13.81 -1.81c-9.31,0 -11.56,10 -11.56,17.43 0,7.94 2.25,17 12,17 8.84,0 10.88,-9.28 10.88,-16.31 0,-3.84 -0.22,-8.37 -2.04,-12 -1.81,-3.38 -5.22,-6.12 -9.06,-6.12l-0.22 0 0 0z"/>
     <path class="fil1" d="M205.16 201.06c4.06,3.84 5.87,9.97 5.87,15.44 0,12.21 -7.72,20.34 -19.9,20.34 -12.04,0 -19.97,-7.91 -19.97,-19.91 0,-12.25 7.03,-21.06 19.71,-21.06 5,0 10.66,1.56 14.29,5.19l0 0zm-13.85 -1.81c-9.28,0 -11.53,10 -11.53,17.43 0,7.94 2.25,17 12,17 8.85,0 10.88,-9.28 10.88,-16.31 0,-3.84 -0.22,-8.37 -2.03,-12 -1.82,-3.38 -5.22,-6.12 -9.07,-6.12l-0.25 0z"/>
     <path class="fil1" d="M230.53 216.5l11.56 -10.22c0.88,-0.91 2.94,-2.25 2.94,-3.85 0,-2.28 -2.72,-2.5 -4.53,-2.72l0 -2.5 21.75 0 0 2.5c-7.25,0.69 -12.25,3.85 -17.44,8.6l-2.06 1.81 11.34 16.56c2.72,3.85 5.88,7 10.88,7.69l0 2.47 -22.22 0 0 -2.47 0.94 0c1.56,0 3.62,0 3.62,-2.28 0,-1.78 -1.84,-4.06 -2.75,-5.41l-7.68 -11.12 -6.57 5.87 0 5.25c0,4.75 0.44,7.69 5.66,7.91l1.34 0 0 2.25 -22.21 0 0 -2.47 0.93 0c5.44,-0.22 6.32,-2.72 6.32,-7.93l0 -34.91c0,-4.28 -0.44,-7.44 -6.1,-7.91l-1.12 0 0 -2.5c4.06,-0.47 7.93,-1.12 11.78,-2.72l3.15 0 0 38.1 0.47 0 0 0 0 0z"/>
     <path class="fil1" d="M301.22 209.25l-2.72 0c-2.03,-5.47 -8.37,-10 -14.28,-10 -3.63,0 -8.38,1.59 -8.38,5.9 0,4.1 4.75,4.75 7.69,5.41l9.28 2.31c6.13,1.31 11.35,3.63 11.35,10.84 0,9.07 -9.07,13.13 -17,13.13 -4.75,0 -9.28,-1.13 -13.13,-4.06l-0.9 3.4 -2.72 0 -2.94 -14.5 2.94 0c2.25,7.25 9.06,11.78 16.53,11.78 4.09,0 10.18,-2.03 10.18,-7.25 0,-4.06 -3.62,-4.96 -6.78,-5.65l-8.37 -2.28c-6.13,-1.6 -13.16,-3.16 -13.16,-10.88 0,-7.47 8.41,-11.53 14.94,-11.53 4.09,0 8.41,1.13 11.56,3.63l0.94 -2.97 2.25 0 2.72 12.72 0 0z"/>
     <path class="fil1" d="M329.72 199.5l-11.56 0 0 22.87c0,4.53 0,11.1 6.09,11.1 2.97,0 5.25,-1.57 7.03,-3.63l2.06 1.81c-2.72,3.63 -7.03,5.19 -11.56,5.19 -2.72,0 -5.91,-0.66 -8.16,-2.03 -3.15,-2.03 -3.62,-5.22 -3.62,-8.81l0 -26.5 -6.78 0 0 -2.75c9.28,-0.22 11.09,-7 11.09,-14.94l3.41 0 0 14.94 11.53 0 0 2.75 0.47 0 0 0 0 0z"/>
     <path class="fil1" d="M368.59 201.06c4.07,3.84 5.91,9.97 5.91,15.44 0,12.21 -7.72,20.34 -19.94,20.34 -12,0 -19.97,-7.91 -19.97,-19.91 0,-12.25 7.04,-21.06 19.72,-21.06 4.97,0 10.66,1.56 14.28,5.19l0 0zm-13.84 -1.81c-9.28,0 -11.53,10 -11.53,17.43 0,7.94 2.25,17 12,17 8.84,0 10.87,-9.28 10.87,-16.31 0,-3.84 -0.21,-8.37 -2.06,-12 -1.78,-3.38 -5.18,-6.12 -9.03,-6.12l-0.25 0 0 0 0 0z"/>
     <path class="fil1" d="M392.75 226.43c0.22,4.75 0.91,7.5 6.13,7.94l1.34 0 0 2.47 -22.41 0 0 -2.47 0.91 0c5.4,-0.22 6.34,-2.94 6.34,-7.94l0 -17c0,-4.53 -0.94,-7.43 -5.9,-7.9l-1.6 0 0 -2.5 12.47 -1.82 2.72 0 0 6.1c3.62,-3.63 8.16,-7 13.59,-7 2.72,0 6.13,1.12 6.13,4.31 0,2.69 -2.06,4.28 -4.56,4.28 -3.82,0 -4.75,-2.72 -7.22,-2.72 -2.72,0 -6.13,2.5 -7.94,4.56l0 19.69 0 0z"/>
     <path class="fil1" d="M421.09 212.87l-0.25 4.06c0,3.85 1.38,8.13 3.41,11.32 2.25,3.4 6.34,4.96 10.41,4.96 5.47,0 9.28,-2.68 12,-7.43l2.75 1.34c-2.97,6.35 -9.75,9.72 -16.57,9.72 -5.43,0 -10.18,-1.31 -14.25,-5.19 -4.09,-4.09 -6.12,-9.75 -6.12,-15.15 0,-11.81 7.47,-20.41 19.47,-20.41l0.22 0c9.53,0 17.46,6.35 17.46,16.31l0 0.22 -28.53 0 0 0.25 0 0zm19.69 -3.44c0,-6.12 -3.87,-9.93 -9.28,-9.93 -5.91,0 -9.53,4.75 -10.22,9.93l19.5 0z"/>
    </g>
   </g>
  </g>
  <g id="_1631715566016">
   <path class="fil2" d="M177.19 5.97c-0.01,0 -0.01,0 -0.02,0 -2.13,0 -4.13,0.83 -5.64,2.33 -1.53,1.53 -2.37,3.56 -2.37,5.72l0 120.73c0,4.43 3.62,8.04 8.06,8.05 18.74,0.05 50.14,3.95 71.8,26.62l0 -126.35c0,-1.5 -0.38,-2.91 -1.1,-4.08 -17.78,-28.63 -51.95,-32.98 -70.73,-33.02zm37.68 53.66l-0.03 51.29c0,2.71 0,6.5 1.06,8.65 1.66,3.8 5.42,3.8 8.68,3.8l2.15 0 0 3.79 -35.17 0 0 -3.27 2.17 0c3.24,0 7.05,-0.52 8.65,-3.75 0.55,-1.09 0.83,-2.7 0.96,-4.36l0 -51.31c0,-2.69 0,-6.5 -1.06,-8.65 -1.63,-3.78 -5.41,-3.78 -8.68,-3.78l-2.15 0 0 -3.81 35.15 0 0 3.26 -2.15 0c-3.26,0 -7.02,0.55 -8.65,3.79 -0.54,1.06 -0.8,2.66 -0.96,4.35l0.03 0 0 0z"/>
   <path class="fil2" d="M341.38 134.75l0 -120.73c0,-2.16 -0.84,-4.19 -2.37,-5.72 -1.51,-1.5 -3.51,-2.33 -5.64,-2.33 0,0 -0.01,0 -0.02,0 -18.78,0.04 -52.94,4.39 -70.72,33.02 -0.72,1.17 -1.11,2.58 -1.11,4.08l0 126.35c21.66,-22.67 53.06,-26.58 71.8,-26.62 4.45,-0.01 8.06,-3.62 8.06,-8.05zm-0.42 -65.45l-4.33 1.63c-4.9,-9.74 -14.07,-16.78 -24.89,-16.78 -4.33,0 -4.33,2.17 -4.33,4.87l0 51.39c0,2.72 0,6.5 1.09,8.65 1.6,3.81 5.39,3.81 8.65,3.81l2.15 0 0 3.78 -35.17 0 0 -3.24 2.17 0c3.24,0 7.05,-0.54 8.65,-3.81 1.09,-2.15 1.09,-6.47 1.09,-9.19l0 -50.85c0,-3.78 0,-5.96 -4.87,-5.96 -11.35,0 -20.02,7.05 -25.41,16.79l-3.81 -1.61 6.5 -20.05 66 0.03 6.51 20.54 0 0z"/>
   <path class="fil2" d="M359.72 33.81l-5.84 0 0 100.94c0,11.3 -9.21,20.52 -20.53,20.55 -15.89,0.04 -42.1,3.15 -60.67,20.72 32.11,-7.87 65.95,-2.76 85.24,1.64 2.41,0.55 4.9,-0.02 6.83,-1.56 1.92,-1.53 3.02,-3.82 3.02,-6.28l0 -127.96c0,-4.44 -3.61,-8.05 -8.05,-8.05z"/>
   <path class="fil2" d="M156.66 134.75l0 -100.94 -5.84 0c-4.44,0 -8.05,3.61 -8.05,8.05l0 127.95c0,2.46 1.1,4.76 3.03,6.29 1.93,1.54 4.41,2.11 6.82,1.56 19.29,-4.4 53.14,-9.51 85.24,-1.65 -18.56,-17.56 -44.77,-20.67 -60.67,-20.71 -11.32,-0.03 -20.53,-9.25 -20.53,-20.55z"/>
  </g>
 </g>
</svg>
