<?xml version="1.0" encoding="UTF-8"?>
<!DOCTYPE svg PUBLIC "-//W3C//DTD SVG 1.0//EN" "http://www.w3.org/TR/2001/REC-SVG-20010904/DTD/svg10.dtd">
<!-- Creator: CorelDRAW 2021 (64-Bit) -->
<svg xmlns="http://www.w3.org/2000/svg" xml:space="preserve" width="200px" height="79px" version="1.0" style="shape-rendering:geometricPrecision; text-rendering:geometricPrecision; image-rendering:optimizeQuality; fill-rule:evenodd; clip-rule:evenodd"
viewBox="0 0 200 78.66"
 xmlns:xlink="http://www.w3.org/1999/xlink"
 xmlns:xodm="http://www.corel.com/coreldraw/odm/2003">
 <defs>
  <style type="text/css">
   <![CDATA[
    .fil1 {fill:#FEFEFE;fill-rule:nonzero}
    .fil0 {fill:#F6AD71;fill-rule:nonzero}
   ]]>
  </style>
 </defs>
 <g id="Layer_x0020_1">
  <metadata id="CorelCorpID_0Corel-Layer"/>
  <g id="Trapezoid">
   <polygon class="fil0" points="161.68,78.66 0,78.66 0.63,0 200,0 "/>
  </g>
  <g id="Bookstore">
   <g>
    <g>
     <path class="fil1" d="M20.7 62.56l0 -0.79 0.29 0c0.73,-0.07 1.52,-0.14 1.89,-0.87 0.21,-0.44 0.28,-1.23 0.28,-1.88l0 -10.88c0,-1.38 -0.14,-2.4 -1.95,-2.54l-0.44 -0.07 0 -0.8 8.92 0c1.37,0 3.41,0.08 4.71,0.51 1.67,0.58 2.9,1.89 2.9,3.7 0,2.24 -1.74,3.33 -3.77,3.69l0 0.08c2.4,0.36 4.71,1.81 4.71,4.49 0,1.96 -1.01,3.55 -2.75,4.43 -1.6,0.79 -3.77,0.87 -5.51,0.87l-9.28 0 0 0.06zm7.9 -10.14c2.39,0 6.02,0 6.02,-3.34 0,-2.97 -3.05,-3.34 -5.37,-3.34 -0.72,0 -2.39,0 -3.04,0.59 -0.44,0.43 -0.51,1.23 -0.51,1.88l0 4.21 2.9 0 0 0zm-2.9 6.01c0,0.73 0,1.89 0.43,2.4 0.59,0.57 2.25,0.65 3.05,0.65 1.31,0 3.04,-0.14 4.2,-0.8 1.24,-0.72 1.89,-2.03 1.89,-3.48 0,-1.59 -0.73,-3.05 -2.39,-3.47 -1.09,-0.3 -2.61,-0.3 -3.84,-0.3l-3.34 0 0 5 0 0z"/>
     <path class="fil1" d="M51 51.11c1.31,1.23 1.89,3.19 1.89,4.94 0,3.91 -2.46,6.51 -6.38,6.51 -3.84,0 -6.38,-2.53 -6.38,-6.37 0,-3.92 2.25,-6.74 6.3,-6.74 1.68,0 3.41,0.5 4.57,1.66zm-4.42 -0.58c-2.98,0 -3.7,3.2 -3.7,5.58 0,2.54 0.72,5.44 3.84,5.44 2.83,0 3.48,-2.97 3.48,-5.22 0,-1.23 -0.07,-2.68 -0.65,-3.84 -0.58,-1.08 -1.67,-1.96 -2.9,-1.96l-0.07 0 0 0z"/>
     <path class="fil1" d="M65.65 51.11c1.3,1.23 1.88,3.19 1.88,4.94 0,3.91 -2.47,6.51 -6.37,6.51 -3.85,0 -6.39,-2.53 -6.39,-6.37 0,-3.92 2.25,-6.74 6.31,-6.74 1.6,0 3.41,0.5 4.57,1.66zm-4.43 -0.58c-2.97,0 -3.69,3.2 -3.69,5.58 0,2.54 0.72,5.44 3.84,5.44 2.83,0 3.48,-2.97 3.48,-5.22 0,-1.23 -0.07,-2.68 -0.65,-3.84 -0.58,-1.08 -1.67,-1.96 -2.9,-1.96l-0.08 0z"/>
     <path class="fil1" d="M73.77 56.05l3.7 -3.27c0.28,-0.29 0.94,-0.72 0.94,-1.23 0,-0.73 -0.87,-0.8 -1.45,-0.87l0 -0.8 6.96 0 0 0.8c-2.32,0.22 -3.92,1.23 -5.58,2.75l-0.66 0.58 3.63 5.3c0.87,1.23 1.88,2.24 3.48,2.46l0 0.79 -7.11 0 0 -0.79 0.3 0c0.5,0 1.16,0 1.16,-0.73 0,-0.57 -0.59,-1.3 -0.88,-1.73l-2.46 -3.56 -2.1 1.88 0 1.68c0,1.52 0.14,2.46 1.81,2.53l0.43 0 0 0.72 -7.11 0 0 -0.79 0.3 0c1.74,-0.07 2.02,-0.87 2.02,-2.54l0 -11.17c0,-1.37 -0.14,-2.38 -1.95,-2.53l-0.36 0 0 -0.8c1.3,-0.15 2.54,-0.36 3.77,-0.87l1.01 0 0 12.19 0.15 0 0 0z"/>
     <path class="fil1" d="M96.39 53.73l-0.87 0c-0.65,-1.75 -2.68,-3.2 -4.57,-3.2 -1.16,0 -2.68,0.51 -2.68,1.89 0,1.31 1.52,1.52 2.46,1.73l2.97 0.74c1.96,0.42 3.63,1.16 3.63,3.47 0,2.9 -2.9,4.2 -5.44,4.2 -1.52,0 -2.97,-0.36 -4.2,-1.3l-0.29 1.09 -0.87 0 -0.94 -4.64 0.94 0c0.72,2.32 2.9,3.77 5.29,3.77 1.31,0 3.26,-0.65 3.26,-2.32 0,-1.3 -1.16,-1.59 -2.17,-1.81l-2.68 -0.73c-1.96,-0.51 -4.21,-1.01 -4.21,-3.48 0,-2.39 2.69,-3.69 4.78,-3.69 1.31,0 2.69,0.36 3.7,1.16l0.3 -0.95 0.72 0 0.87 4.07 0 0z"/>
     <path class="fil1" d="M105.51 50.61l-3.7 0 0 7.32c0,1.45 0,3.55 1.95,3.55 0.95,0 1.68,-0.5 2.25,-1.16l0.66 0.58c-0.87,1.16 -2.25,1.66 -3.7,1.66 -0.87,0 -1.89,-0.21 -2.61,-0.65 -1.01,-0.65 -1.16,-1.67 -1.16,-2.82l0 -8.48 -2.17 0 0 -0.88c2.97,-0.07 3.55,-2.24 3.55,-4.78l1.09 0 0 4.78 3.69 0 0 0.88 0.15 0 0 0z"/>
     <path class="fil1" d="M117.95 51.11c1.3,1.23 1.89,3.19 1.89,4.94 0,3.91 -2.47,6.51 -6.38,6.51 -3.84,0 -6.39,-2.53 -6.39,-6.37 0,-3.92 2.25,-6.74 6.31,-6.74 1.59,0 3.41,0.5 4.57,1.66zm-4.43 -0.58c-2.97,0 -3.69,3.2 -3.69,5.58 0,2.54 0.72,5.44 3.84,5.44 2.83,0 3.48,-2.97 3.48,-5.22 0,-1.23 -0.07,-2.68 -0.66,-3.84 -0.57,-1.08 -1.66,-1.96 -2.89,-1.96l-0.08 0 0 0z"/>
     <path class="fil1" d="M125.68 59.23c0.07,1.52 0.29,2.4 1.96,2.54l0.43 0 0 0.79 -7.17 0 0 -0.79 0.29 0c1.73,-0.07 2.03,-0.94 2.03,-2.54l0 -5.44c0,-1.45 -0.3,-2.38 -1.89,-2.53l-0.51 0 0 -0.8 3.99 -0.58 0.87 0 0 1.95c1.16,-1.16 2.61,-2.24 4.35,-2.24 0.87,0 1.96,0.36 1.96,1.38 0,0.86 -0.66,1.37 -1.46,1.37 -1.22,0 -1.52,-0.87 -2.31,-0.87 -0.87,0 -1.96,0.8 -2.54,1.46l0 6.3z"/>
     <path class="fil1" d="M134.75 54.89l-0.08 1.3c0,1.23 0.44,2.6 1.09,3.62 0.72,1.09 2.03,1.59 3.33,1.59 1.75,0 2.97,-0.86 3.84,-2.38l0.88 0.43c-0.95,2.03 -3.12,3.11 -5.3,3.11 -1.74,0 -3.26,-0.42 -4.56,-1.66 -1.31,-1.31 -1.96,-3.12 -1.96,-4.85 0,-3.78 2.39,-6.53 6.23,-6.53l0.07 0c3.05,0 5.59,2.03 5.59,5.22l0 0.07 -9.13 0 0 0.08zm6.3 -1.1c0,-1.96 -1.24,-3.18 -2.97,-3.18 -1.89,0 -3.05,1.52 -3.27,3.18l6.24 0z"/>
    </g>
   </g>
  </g>
  <g id="IT">
   <path class="fil1" d="M105.04 16.44l-1.67 0.63c-1.89,-3.76 -5.43,-6.48 -9.61,-6.48 -1.67,0 -1.67,0.84 -1.67,1.88l0 19.84c0,1.05 0,2.51 0.42,3.34 0.62,1.47 2.08,1.47 3.34,1.47l0.83 0 0 1.46 -13.58 0 0 -1.25 0.84 0c1.25,0 2.72,-0.21 3.34,-1.47 0.42,-0.83 0.42,-2.5 0.42,-3.55l0 -19.63c0,-1.46 0,-2.3 -1.88,-2.3 -4.38,0 -7.73,2.72 -9.81,6.48l-1.47 -0.62 2.51 -7.74 25.48 0.01 2.51 7.93 0 0z"/>
   <path class="fil1" d="M68.58 12.98l-0.01 19.8c0,1.05 0,2.51 0.41,3.34 0.64,1.47 2.09,1.47 3.35,1.47l0.83 0 0 1.46 -13.58 0 0 -1.26 0.84 0c1.25,0 2.72,-0.2 3.34,-1.45 0.21,-0.42 0.32,-1.04 0.37,-1.68l0 0 0 -19.81c0,-1.04 0,-2.51 -0.41,-3.34 -0.63,-1.46 -2.09,-1.46 -3.35,-1.46l-0.83 0 0 -1.47 13.57 0 0 1.26 -0.83 0c-1.26,0 -2.71,0.21 -3.34,1.46 -0.21,0.41 -0.31,1.03 -0.37,1.68l0.01 0 0 0z"/>
  </g>
 </g>
</svg>
